<svg width="44" height="44" viewBox="0 0 44 44" fill="none" xmlns="http://www.w3.org/2000/svg">
<path d="M10 16V2H34V16M10 34H6C4.93913 34 3.92172 33.5786 3.17157 32.8284C2.42143 32.0783 2 31.0609 2 30V20C2 18.9391 2.42143 17.9217 3.17157 17.1716C3.92172 16.4214 4.93913 16 6 16H38C39.0609 16 40.0783 16.4214 40.8284 17.1716C41.5786 17.9217 42 18.9391 42 20V30C42 31.0609 41.5786 32.0783 40.8284 32.8284C40.0783 33.5786 39.0609 34 38 34H34M10 26H34V42H10V26Z" stroke="#FD8D1B" stroke-width="4" stroke-linecap="round" stroke-linejoin="round"/>
</svg>
