<svg width="34" height="34" viewBox="0 0 34 34" fill="none" xmlns="http://www.w3.org/2000/svg">
<path d="M8 12.5V2H26V12.5M8 26H5C4.20435 26 3.44129 25.6839 2.87868 25.1213C2.31607 24.5587 2 23.7956 2 23V15.5C2 14.7044 2.31607 13.9413 2.87868 13.3787C3.44129 12.8161 4.20435 12.5 5 12.5H29C29.7956 12.5 30.5587 12.8161 31.1213 13.3787C31.6839 13.9413 32 14.7044 32 15.5V23C32 23.7956 31.6839 24.5587 31.1213 25.1213C30.5587 25.6839 29.7956 26 29 26H26M8 20H26V32H8V20Z" stroke="#009951" stroke-width="4" stroke-linecap="round" stroke-linejoin="round"/>
</svg>
